{
  "asset": {
    "generator": "BabylonJS",
    "version": "2.0"
  },
  "buffers": [
    {
      "uri": "shoe_data.bin",
      "byteLength": 705680
    }
  ],
  "nodes": [
    {
      "name": "Shoeobj",
      "translation": [
        0.001610487699508667,
        0.07590250670909882,
        0.004850998520851135
      ],
      "scale": [
        0.14893949031829834,
        0.14893949031829834,
        0.14893949031829834
      ],
      "extras": {
        "name": "Shoe.obj"
      },
      "children": [
        1
      ]
    },
    {
      "name": "g_Shoe",
      "extras": {
        "name": "g Shoe"
      },
      "children": [
        2
      ]
    },
    {
      "name": "Shoe",
      "mesh": 0,
      "extras": {
        "name": "Shoe"
      }
    },
    {
      "name": "light",
      "rotation": [
        0,
        1,
        0,
        0
      ]
    }
  ],
  "meshes": [
    {
      "primitives": [
        {
          "attributes": {
            "POSITION": 0,
            "NORMAL": 1,
            "TEXCOORD_0": 2
          },
          "indices": 3,
          "material": 0
        }
      ]
    }
  ],
  "scenes": [
    {
      "nodes": [
        0,
        3
      ]
    }
  ],
  "scene": 0,
  "bufferViews": [
    {
      "buffer": 0,
      "byteLength": 162480,
      "name": "position - Shoe",
      "byteStride": 12,
      "byteOffset": 0
    },
    {
      "buffer": 0,
      "byteLength": 162480,
      "byteOffset": 162480,
      "name": "normal - Shoe",
      "byteStride": 12
    },
    {
      "buffer": 0,
      "byteLength": 108320,
      "byteOffset": 324960,
      "name": "uv - Shoe",
      "byteStride": 8
    },
    {
      "buffer": 0,
      "byteLength": 272400,
      "byteOffset": 433280,
      "name": "Indices - Shoe"
    }
  ],
  "accessors": [
    {
      "name": "position - Shoe",
      "bufferView": 0,
      "componentType": 5126,
      "count": 13540,
      "type": "VEC3",
      "min": [
        -1,
        -0.5139704942703247,
        -0.38874176144599915
      ],
      "max": [
        1.0000001192092896,
        0.5139704942703247,
        0.38874176144599915
      ],
      "byteOffset": 0
    },
    {
      "name": "normal - Shoe",
      "bufferView": 1,
      "componentType": 5126,
      "count": 13540,
      "type": "VEC3",
      "byteOffset": 0
    },
    {
      "name": "uv - Shoe",
      "bufferView": 2,
      "componentType": 5126,
      "count": 13540,
      "type": "VEC2",
      "byteOffset": 0
    },
    {
      "name": "indices - Shoe",
      "bufferView": 3,
      "componentType": 5125,
      "count": 68100,
      "type": "SCALAR",
      "byteOffset": 0
    }
  ],
  "materials": [
    {
      "name": "phong1SG",
      "pbrMetallicRoughness": {
        "baseColorFactor": [
          1,
          1,
          1,
          1
        ],
        "baseColorTexture": {
          "index": 0,
          "texCoord": 0
        },
        "metallicRoughnessTexture": {
          "index": 1,
          "texCoord": 0
        }
      },
      "normalTexture": {
        "index": 6,
        "texCoord": 0
      },
      "occlusionTexture": {
        "index": 7,
        "texCoord": 0,
        "strength": 1
      }
    },
    {
      "name": "phong1SG",
      "pbrMetallicRoughness": {
        "baseColorFactor": [
          1,
          1,
          1,
          1
        ],
        "baseColorTexture": {
          "index": 2,
          "texCoord": 0
        },
        "metallicRoughnessTexture": {
          "index": 3,
          "texCoord": 0
        }
      },
      "normalTexture": {
        "index": 8,
        "texCoord": 0
      },
      "occlusionTexture": {
        "index": 9,
        "texCoord": 0,
        "strength": 1
      }
    },
    {
      "name": "phong1SG",
      "pbrMetallicRoughness": {
        "baseColorFactor": [
          1,
          1,
          1,
          1
        ],
        "baseColorTexture": {
          "index": 4,
          "texCoord": 0
        },
        "metallicRoughnessTexture": {
          "index": 5,
          "texCoord": 0
        }
      },
      "normalTexture": {
        "index": 10,
        "texCoord": 0
      },
      "occlusionTexture": {
        "index": 11,
        "texCoord": 0,
        "strength": 1
      }
    }
  ],
  "textures": [
    {
      "source": 0,
      "name": "phong1SG (Base Color)",
      "sampler": 0
    },
    {
      "source": 1,
      "name": "phong1SG (Metallic Roughness)",
      "sampler": 0
    },
    {
      "source": 0,
      "name": "phong1SG (Base Color)",
      "sampler": 0
    },
    {
      "source": 1,
      "name": "phong1SG (Metallic Roughness)",
      "sampler": 0
    },
    {
      "source": 0,
      "name": "phong1SG (Base Color)",
      "sampler": 0
    },
    {
      "source": 1,
      "name": "phong1SG (Metallic Roughness)",
      "sampler": 0
    },
    {
      "source": 2,
      "name": "phong1SG (Normal)",
      "sampler": 0
    },
    {
      "source": 3,
      "name": "phong1SG (Occlusion)",
      "sampler": 0
    },
    {
      "source": 2,
      "name": "phong1SG (Normal)",
      "sampler": 0
    },
    {
      "source": 3,
      "name": "phong1SG (Occlusion)",
      "sampler": 0
    },
    {
      "source": 2,
      "name": "phong1SG (Normal)",
      "sampler": 0
    },
    {
      "source": 3,
      "name": "phong1SG (Occlusion)",
      "sampler": 0
    }
  ],
  "samplers": [
    {
      "magFilter": 9729,
      "minFilter": 9985
    }
  ],
  "images": [
    {
      "name": "phong1SG (Base Color) image",
      "uri": "shoe_img0.jpg"
    },
    {
      "name": "phong1SG (Metallic Roughness) image",
      "uri": "shoe_img1.jpg"
    },
    {
      "name": "phong1SG (Normal) image",
      "uri": "shoe_img2.jpg"
    },
    {
      "name": "phong1SG (Occlusion) image",
      "uri": "shoe_img3.jpg"
    }
  ]
}